<svg width="387" height="785" viewBox="0 0 387 785" fill="none" xmlns="http://www.w3.org/2000/svg">
    <g clip-path="url(#clip0_2208_266)">
        <path d="M0 211C0 209.895 0.895431 209 2 209H5V265H2C0.89543 265 0 264.105 0 263V211Z" fill="#2C2C2B" />
    </g>
    <g clip-path="url(#clip1_2208_266)">
        <path d="M0 284C0 282.895 0.895431 282 2 282H5V338H2C0.89543 338 0 337.105 0 336V284Z" fill="#2C2C2B" />
    </g>
    <g clip-path="url(#clip2_2208_266)">
        <path
            d="M387 345C387 346.105 386.105 347 385 347L382 347L382 248L385 248C386.105 248 387 248.895 387 250L387 345Z"
            fill="#2C2C2B" />
    </g>
    <g clip-path="url(#clip3_2208_266)">
        <path d="M0 151C0 149.895 0.895431 149 2 149H5V180H2C0.89543 180 0 179.105 0 178V151Z" fill="#2C2C2B" />
    </g>
    <g clip-path="url(#clip4_2208_266)">
        <rect x="5.5" y="0.5" width="376" height="784" rx="61.5" fill="#2C2C2C" stroke="#7D7E7E" />
    </g>
    <g clip-path="url(#clip5_2208_266)">
        <rect x="9" y="4" width="369" height="777" rx="58" fill="black" />
        <g filter="url(#filter0_f_2208_266)">
            <rect x="11" y="6" width="365" height="773" rx="56" stroke="#020202" stroke-width="4" />
        </g>
    </g>
    <rect x="17" y="12" width="353" height="761" rx="52" fill="#FF0000" />
    <defs>
        <filter id="filter0_f_2208_266" x="2" y="-3" width="383" height="791" filterUnits="userSpaceOnUse"
            color-interpolation-filters="sRGB">
            <feFlood flood-opacity="0" result="BackgroundImageFix" />
            <feBlend mode="normal" in="SourceGraphic" in2="BackgroundImageFix" result="shape" />
            <feGaussianBlur stdDeviation="3.5" result="effect1_foregroundBlur_2208_266" />
        </filter>
        <clipPath id="clip0_2208_266">
            <path d="M0 211C0 209.895 0.895431 209 2 209H5V265H2C0.89543 265 0 264.105 0 263V211Z" fill="white" />
        </clipPath>
        <clipPath id="clip1_2208_266">
            <path d="M0 284C0 282.895 0.895431 282 2 282H5V338H2C0.89543 338 0 337.105 0 336V284Z" fill="white" />
        </clipPath>
        <clipPath id="clip2_2208_266">
            <path
                d="M387 346C387 347.105 386.105 348 385 348L382 348L382 252L385 252C386.105 252 387 252.895 387 254L387 346Z"
                fill="white" />
        </clipPath>
        <clipPath id="clip3_2208_266">
            <path d="M0 151C0 149.895 0.895431 149 2 149H5V180H2C0.89543 180 0 179.105 0 178V151Z" fill="white" />
        </clipPath>
        <clipPath id="clip4_2208_266">
            <rect x="5" width="377" height="785" rx="62" fill="white" />
        </clipPath>
        <clipPath id="clip5_2208_266">
            <rect x="9" y="4" width="369" height="777" rx="58" fill="white" />
        </clipPath>
    </defs>
</svg>