<svg width="385" height="785" viewBox="0 0 385 785" fill="none" xmlns="http://www.w3.org/2000/svg">
    <path d="M0 151C0 149.895 0.895431 149 2 149H5V180H2C0.89543 180 0 179.105 0 178V151Z" fill="#898989" />
    <path d="M0 211C0 209.895 0.895431 209 2 209H5V265H2C0.89543 265 0 264.105 0 263V211Z" fill="#898989" />
    <path d="M0 284C0 282.895 0.895431 282 2 282H5V338H2C0.89543 338 0 337.105 0 336V284Z" fill="#898989" />
    <g clip-path="url(#clip0_2208_266)">
        <g filter="url(#filter0_f_2208_266)">
            <rect x="6.5" y="1.5" width="374" height="782" rx="60.5" stroke="#C3C3C3" stroke-width="3" />
        </g>
        <rect x="298" width="6" height="4" fill="#D0D0D0" />
        <rect x="5" y="87" width="6" height="4" transform="rotate(-90 5 87)" fill="#D0D0D0" />
        <rect x="5" y="698" width="4" height="6" fill="#D0D0D0" />
        <rect x="68" y="781" width="5" height="4" fill="#D0D0D0" />
        <rect x="378" y="698" width="4" height="6" fill="#D0D0D0" />
        <g clip-path="url(#clip1_2208_266)">
            <rect x="11" y="6" width="365" height="773" rx="56" stroke="black" stroke-width="4" />
            <rect x="17" y="12" width="353" height="761" rx="52" fill="#0000FF" id="screen" />
        </g>
    </g>
    <defs>
        <filter id="filter0_f_2208_266" x="1" y="-4" width="385" height="793" filterUnits="userSpaceOnUse"
            color-interpolation-filters="sRGB">
            <feFlood flood-opacity="0" result="BackgroundImageFix" />
            <feBlend mode="normal" in="SourceGraphic" in2="BackgroundImageFix" result="shape" />
            <feGaussianBlur stdDeviation="2" result="effect1_foregroundBlur_2208_266" />
        </filter>
        <clipPath id="clip0_2208_266">
            <rect x="5" width="377" height="785" rx="62" fill="white" />
        </clipPath>
        <clipPath id="clip1_2208_266">
            <rect x="9" y="4" width="369" height="777" rx="58" fill="white" />
        </clipPath>
        <clipPath id="screenMask">
            <rect x="17" y="12" width="353" height="761" rx="52" />
        </clipPath>
        <mask id="screenMaskWhite">
            <rect x="0" y="0" width="385" height="785" fill="black" />
            <rect x="17" y="12" width="353" height="761" rx="52" fill="white" />
        </mask>
    </defs>
</svg>